<svg xmlns="http://www.w3.org/2000/svg" xmlns:xlink="http://www.w3.org/1999/xlink" viewBox="0 0 2000 2000"><defs><style>.cls-1{fill:url(#Безымянный_градиент_7);}.cls-2{fill:url(#Безымянный_градиент_7-2);}.cls-3{fill:url(#Безымянный_градиент_7-3);}</style><linearGradient id="Безымянный_градиент_7" x1="386.76" y1="1179.56" x2="1276.46" y2="-231.19" gradientUnits="userSpaceOnUse"><stop offset="0" stop-color="#662d91"/><stop offset="1" stop-color="#0071bc"/></linearGradient><linearGradient id="Безымянный_градиент_7-2" x1="603.21" y1="1421.6" x2="1571.14" y2="-113.2" xlink:href="#Безымянный_градиент_7"/><linearGradient id="Безымянный_градиент_7-3" x1="480.71" y1="1238.81" x2="1370.41" y2="-171.94" xlink:href="#Безымянный_градиент_7"/></defs><g id="Слой_1" data-name="Слой 1"><polygon class="cls-1" points="2000 134 1883.61 335.6 1802.77 475.64 1569.92 475.64 1650.76 335.6 349.17 335.6 367.58 367.45 430.08 475.64 483.97 569.05 546.47 677.24 1686.38 677.24 1569.92 878.84 1453.53 1080.44 1100.8 1691.42 1000 1866 899.2 1691.42 546.4 1080.44 779.25 1080.44 899.2 1288.22 1000 1462.81 1100.8 1288.22 1220.75 1080.44 1337.14 878.84 430.01 878.84 313.62 677.24 251.13 569.05 197.23 475.64 134.74 367.45 116.32 335.6 0 134 2000 134"/><polygon class="cls-2" points="1100.77 429.85 1100.77 1140.36 999.97 1314.94 899.17 1140.36 899.17 429.85 1100.77 429.85"/><polygon class="cls-3" points="1516.2 406.86 1399.88 608.46 600.14 608.46 590.19 591.26 547.39 517.07 497.73 431.19 483.75 406.86 1516.2 406.86"/></g></svg>